<svg xmlns="http://www.w3.org/2000/svg" viewBox="0 0 96 96" fill="none"><title>보라 팬텀 뿌요</title><defs><filter id="blur1" x="-30%" y="-30%" width="160%" height="160%"><feGaussianBlur stdDeviation="1.1"/></filter><filter id="blur2" x="-30%" y="-30%" width="160%" height="160%"><feGaussianBlur stdDeviation="2.4"/></filter><filter id="blur3" x="-40%" y="-40%" width="180%" height="180%"><feGaussianBlur stdDeviation="3.4"/></filter><radialGradient id="body" cx="0.38" cy="0.3" r=".82" fx="0.32" fy="0.21999999999999997"><stop offset="0" stop-color="#E2C8FF"/><stop offset=".45" stop-color="#9A5CF0"/><stop offset=".86" stop-color="#5B26B4"/><stop offset="1" stop-color="#34106F"/></radialGradient><radialGradient id="ao" cx=".44" cy=".4" r=".68"><stop offset=".62" stop-color="#34106F" stop-opacity="0"/><stop offset="1" stop-color="#34106F" stop-opacity=".55"/></radialGradient><linearGradient id="spec" x1="0" y1="0" x2="0" y2="1"><stop offset="0" stop-color="#fff" stop-opacity=".95"/><stop offset="1" stop-color="#fff" stop-opacity=".05"/></linearGradient><radialGradient id="shadow" cx=".5" cy=".5" r=".5"><stop offset="0" stop-color="#34106F" stop-opacity=".5"/><stop offset="1" stop-color="#34106F" stop-opacity="0"/></radialGradient><clipPath id="clip"><path d="M17 44 13 23 30 29 36 13 47 24 61 11 66 28 83 21 78 43C89 61 83 80 66 84 53 88 32 87 22 80 9 72 9 56 17 44Z"/></clipPath><radialGradient id="sclera" cx=".42" cy=".32" r=".75"><stop offset="0" stop-color="#fff"/><stop offset="1" stop-color="#dfe4f0"/></radialGradient><radialGradient id="redeye" cx=".4" cy=".3" r=".8"><stop offset="0" stop-color="#FFB3C4"/><stop offset=".6" stop-color="#FF4F7E"/><stop offset="1" stop-color="#C21B4F"/></radialGradient><linearGradient id="teeth" x1="0" y1="0" x2="0" y2="1"><stop offset="0" stop-color="#fff"/><stop offset="1" stop-color="#E4DCEF"/></linearGradient></defs><ellipse cx="48" cy="87" rx="31" ry="5.5" fill="url(#shadow)"/><ellipse cx="48" cy="86.5" rx="19" ry="2.6" fill="#34106F" opacity=".32" filter="url(#blur1)"/><path d="m15 57-6 7 9 3m63-10 6 7-9 3" fill="#7F45D6" stroke="#34106F" stroke-width="1.8" stroke-linejoin="round" stroke-opacity=".6"/><path d="M17 44 13 23 30 29 36 13 47 24 61 11 66 28 83 21 78 43C89 61 83 80 66 84 53 88 32 87 22 80 9 72 9 56 17 44Z" fill="url(#body)"/><path d="M17 44 13 23 30 29 36 13 47 24 61 11 66 28 83 21 78 43C89 61 83 80 66 84 53 88 32 87 22 80 9 72 9 56 17 44Z" fill="url(#ao)"/><g clip-path="url(#clip)"><ellipse cx="50" cy="92" rx="34" ry="12" fill="#D59CFF" opacity=".75" filter="url(#blur3)"/></g><path d="M17 44 13 23 30 29 36 13 47 24 61 11 66 28 83 21 78 43C89 61 83 80 66 84 53 88 32 87 22 80 9 72 9 56 17 44Z" stroke="#34106F" stroke-width="1.8" stroke-linejoin="round" opacity=".55"/><g clip-path="url(#clip)"><ellipse cx="31" cy="36" rx="13" ry="7.5" transform="rotate(-28 31 36)" fill="url(#spec)" opacity=".82" filter="url(#blur2)"/></g><ellipse cx="28" cy="34.5" rx="4.6" ry="2.5" transform="rotate(-28 28 34.5)" fill="#fff" opacity=".92"/><circle cx="37" cy="32" r="1.3" fill="#fff" opacity=".85"/><path d="m24 42 17 6c-1 11-15 12-17-6Zm48 0-17 6c1 11 15 12 17-6Z" fill="url(#redeye)" stroke="#2A0C55" stroke-width="1.6"/><path d="M27 45c3 2 6 3 9 3" stroke="#fff" stroke-width="1.6" stroke-linecap="round" opacity=".75"/><path d="M60 48c3 0 6-1 9-3" stroke="#fff" stroke-width="1.6" stroke-linecap="round" opacity=".75"/><path d="m33 47 1 6m29-6-1 6" stroke="#4A0F2A" stroke-width="3" stroke-linecap="round"/><path d="M25 62c14 5 32 5 46-1-3 13-15 17-23 17-10 0-20-5-23-16Z" fill="#2A0C55" opacity=".25" transform="translate(0 1.5)" filter="url(#blur1)"/><path d="M25 61c14 5 32 5 46-1-3 13-15 17-23 17-10 0-20-5-23-16Z" fill="url(#teeth)" stroke="#2A0C55" stroke-width="1.8" stroke-linejoin="round"/><path d="m36 65 1 8m11-7v10m12-11-1 8" stroke="#9C87B8" stroke-width="1.4"/><path d="m22 39 20 8m32-8-20 8" stroke="#34106F" stroke-width="3.6" stroke-linecap="round"/></svg>