<svg xmlns="http://www.w3.org/2000/svg" viewBox="0 0 96 96" fill="none"><title>보라 팬텀 뿌요</title><defs><linearGradient id="body" x1="30" y1="15" x2="63" y2="84" gradientUnits="userSpaceOnUse"><stop stop-color="#B986FF"/><stop offset=".48" stop-color="#8950DF"/><stop offset="1" stop-color="#5927AC"/></linearGradient><linearGradient id="shine" x1="22" y1="18" x2="53" y2="49" gradientUnits="userSpaceOnUse"><stop stop-color="#F5DFFF" stop-opacity=".9"/><stop offset="1" stop-color="#E7C6FF" stop-opacity="0"/></linearGradient></defs><ellipse cx="48" cy="86" rx="31" ry="5" fill="#2C1747" opacity=".18"/><g id="body-group"><path d="M17 44 13 23 30 29 36 13 47 24 61 11 66 28 83 21 78 43C89 61 83 80 66 84 53 88 32 87 22 80 9 72 9 56 17 44Z" fill="url(#body)" stroke="#4B2583" stroke-width="3.4" stroke-linejoin="round"/><path d="M22 43 20 31 33 35 39 23 48 32 59 21 62 35C45 29 30 37 23 52Z" fill="url(#shine)"/><path d="M20 67C27 83 66 87 79 67" stroke="#CF9FFF" stroke-opacity=".28" stroke-width="3" stroke-linecap="round"/><path d="m15 57-5 7 8 3m63-10 5 7-8 3" fill="#8850DD" stroke="#4B2583" stroke-width="3" stroke-linejoin="round"/></g><g id="face"><path d="m24 42 17 6c-1 11-15 12-17-6Zm48 0-17 6c1 11 15 12 17-6Z" fill="#FF688E" stroke="#422263" stroke-width="2.2"/><path d="m33 47 1 6m29-6-1 6" stroke="#542243" stroke-width="3" stroke-linecap="round"/><path d="M25 61c14 5 32 5 46-1-3 13-15 17-23 17-10 0-20-5-23-16Z" fill="#FFF8E8" stroke="#422263" stroke-width="2.7" stroke-linejoin="round"/><path d="m36 65 1 8m11-7v10m12-11-1 8" stroke="#74588D" stroke-width="1.7"/><path d="m22 39 20 8m32-8-20 8" stroke="#4B2583" stroke-width="3.8" stroke-linecap="round"/></g></svg>
