<svg xmlns="http://www.w3.org/2000/svg" viewBox="0 0 96 96" fill="none"><title>회색 방해 뿌요</title><defs><filter id="blur05" x="-30%" y="-30%" width="160%" height="160%"><feGaussianBlur stdDeviation=".6"/></filter><filter id="blur1" x="-30%" y="-30%" width="160%" height="160%"><feGaussianBlur stdDeviation="1.1"/></filter><filter id="blur2" x="-30%" y="-30%" width="160%" height="160%"><feGaussianBlur stdDeviation="2.4"/></filter><filter id="blur3" x="-40%" y="-40%" width="180%" height="180%"><feGaussianBlur stdDeviation="3.4"/></filter><radialGradient id="body" cx="0.38" cy="0.3" r=".82" fx="0.32" fy="0.21999999999999997"><stop offset="0" stop-color="#F7F9FF"/><stop offset=".42" stop-color="#B4BDD3"/><stop offset=".84" stop-color="#7A84A2"/><stop offset="1" stop-color="#3A4360"/></radialGradient><radialGradient id="ao" cx=".44" cy=".4" r=".68"><stop offset=".6" stop-color="#3A4360" stop-opacity="0"/><stop offset="1" stop-color="#3A4360" stop-opacity=".5"/></radialGradient><linearGradient id="spec" x1="0" y1="0" x2="0" y2="1"><stop offset="0" stop-color="#fff" stop-opacity=".95"/><stop offset="1" stop-color="#fff" stop-opacity=".05"/></linearGradient><radialGradient id="shadow" cx=".5" cy=".5" r=".5"><stop offset="0" stop-color="#3A4360" stop-opacity=".55"/><stop offset="1" stop-color="#3A4360" stop-opacity="0"/></radialGradient><clipPath id="clip"><path d="M17 51C17 34 28 21 48 21s31 13 31 30c0 8 7 12 7 19 0 11-15 16-38 16S10 81 10 70c0-7 7-11 7-19Z"/></clipPath><mask id="term" maskUnits="userSpaceOnUse" x="0" y="0" width="96" height="96"><rect width="96" height="96" fill="#fff"/><path d="M17 51C17 34 28 21 48 21s31 13 31 30c0 8 7 12 7 19 0 11-15 16-38 16S10 81 10 70c0-7 7-11 7-19Z" transform="translate(-6 -7)" fill="#000" filter="url(#blur2)"/></mask><mask id="rim" maskUnits="userSpaceOnUse" x="0" y="0" width="96" height="96"><rect width="96" height="96" fill="#fff"/><path d="M17 51C17 34 28 21 48 21s31 13 31 30c0 8 7 12 7 19 0 11-15 16-38 16S10 81 10 70c0-7 7-11 7-19Z" transform="translate(2.4 2.8)" fill="#000" filter="url(#blur05)"/></mask><mask id="kick" maskUnits="userSpaceOnUse" x="0" y="0" width="96" height="96"><rect width="96" height="96" fill="#fff"/><path d="M17 51C17 34 28 21 48 21s31 13 31 30c0 8 7 12 7 19 0 11-15 16-38 16S10 81 10 70c0-7 7-11 7-19Z" transform="translate(-2.2 -2.6)" fill="#000" filter="url(#blur05)"/></mask><radialGradient id="dot" cx=".4" cy=".3" r=".8"><stop offset="0" stop-color="#6B7595"/><stop offset="1" stop-color="#262D44"/></radialGradient></defs><style>.blink{transform-box:fill-box;transform-origin:50% 55%;animation:blink 4.6s -1.2s infinite}@keyframes blink{0%,91%,100%{transform:scaleY(1)}94%{transform:scaleY(.08)}97%{transform:scaleY(1)}}@media(prefers-reduced-motion:reduce){.blink{animation:none}}</style><ellipse cx="48" cy="87.5" rx="32" ry="5.5" fill="url(#shadow)"/><ellipse cx="48" cy="86.8" rx="20" ry="2.4" fill="#3A4360" opacity=".4" filter="url(#blur1)"/><path d="M17 51C17 34 28 21 48 21s31 13 31 30c0 8 7 12 7 19 0 11-15 16-38 16S10 81 10 70c0-7 7-11 7-19Z" fill="url(#body)"/><path d="M17 51C17 34 28 21 48 21s31 13 31 30c0 8 7 12 7 19 0 11-15 16-38 16S10 81 10 70c0-7 7-11 7-19Z" fill="url(#ao)"/><g clip-path="url(#clip)"><rect width="96" height="96" fill="#3A4360" opacity=".42" mask="url(#term)"/><ellipse cx="50" cy="93" rx="34" ry="12" fill="#DCE3F7" opacity=".8" filter="url(#blur3)"/><rect width="96" height="96" fill="#DCE3F7" opacity=".85" mask="url(#kick)"/><rect width="96" height="96" fill="#fff" opacity=".55" mask="url(#rim)"/><path d="M40 70c5 2 11 2 16 0" stroke="#7A84A2" stroke-width="1.4" stroke-linecap="round" opacity=".5"/></g><path d="M17 51C17 34 28 21 48 21s31 13 31 30c0 8 7 12 7 19 0 11-15 16-38 16S10 81 10 70c0-7 7-11 7-19Z" stroke="#3A4360" stroke-width="2.2" stroke-linejoin="round" opacity=".7"/><g clip-path="url(#clip)"><ellipse cx="32" cy="33" rx="13" ry="7.5" transform="rotate(-22 32 33)" fill="url(#spec)" opacity=".7" filter="url(#blur2)"/></g><g transform="rotate(-22 29 31.5)" fill="#fff"><rect x="23.5" y="28.5" width="6.2" height="5.4" rx="2.2" opacity=".95"/><rect x="30.7" y="28.5" width="3.6" height="5.4" rx="1.6" opacity=".8"/></g><circle cx="39" cy="28" r="1.2" fill="#fff" opacity=".85"/><path d="m28 46 13 4m27-4-13 4" stroke="#545D7B" stroke-width="3" stroke-linecap="round"/><ellipse cx="33" cy="57" rx="4.6" ry="6" fill="#000" opacity=".15" filter="url(#blur1)"/><ellipse cx="63" cy="57" rx="4.6" ry="6" fill="#000" opacity=".15" filter="url(#blur1)"/><ellipse cx="33" cy="56" rx="4" ry="5.5" fill="url(#dot)"/><ellipse cx="63" cy="56" rx="4" ry="5.5" fill="url(#dot)"/><ellipse cx="34" cy="53.6" rx="1.5" ry="1.2" fill="#F2F5FF"/><ellipse cx="64" cy="53.6" rx="1.5" ry="1.2" fill="#F2F5FF"/><path d="M41 68q7-4 14 0" stroke="#4D5674" stroke-width="2.8" stroke-linecap="round"/></svg>