<svg xmlns="http://www.w3.org/2000/svg" viewBox="0 0 96 96" fill="none"><title>초록 잠만보 뿌요 얼굴</title><defs><filter id="blur05" x="-30%" y="-30%" width="160%" height="160%"><feGaussianBlur stdDeviation=".6"/></filter><filter id="blur1" x="-30%" y="-30%" width="160%" height="160%"><feGaussianBlur stdDeviation="1.1"/></filter><filter id="blur2" x="-30%" y="-30%" width="160%" height="160%"><feGaussianBlur stdDeviation="2.4"/></filter><filter id="blur3" x="-40%" y="-40%" width="180%" height="180%"><feGaussianBlur stdDeviation="3.4"/></filter><radialGradient id="body" cx="0.38" cy="0.3" r=".82" fx="0.32" fy="0.21999999999999997"><stop offset="0" stop-color="#B9F7D6"/><stop offset=".42" stop-color="#38C48C"/><stop offset=".84" stop-color="#178462"/><stop offset="1" stop-color="#09503A"/></radialGradient><radialGradient id="ao" cx=".44" cy=".4" r=".68"><stop offset=".6" stop-color="#09503A" stop-opacity="0"/><stop offset="1" stop-color="#09503A" stop-opacity=".5"/></radialGradient><linearGradient id="spec" x1="0" y1="0" x2="0" y2="1"><stop offset="0" stop-color="#fff" stop-opacity=".95"/><stop offset="1" stop-color="#fff" stop-opacity=".05"/></linearGradient><radialGradient id="shadow" cx=".5" cy=".5" r=".5"><stop offset="0" stop-color="#09503A" stop-opacity=".55"/><stop offset="1" stop-color="#09503A" stop-opacity="0"/></radialGradient><clipPath id="clip"><path d="M20 35 22 13q2-5 6 0l12 12q8-2 16 0l12-12q4-5 6 0l2 22C88 45 88 68 78 79c-11 12-49 12-60 0C8 68 8 45 20 35Z"/></clipPath><mask id="term" maskUnits="userSpaceOnUse" x="0" y="0" width="96" height="96"><rect width="96" height="96" fill="#fff"/><path d="M20 35 22 13q2-5 6 0l12 12q8-2 16 0l12-12q4-5 6 0l2 22C88 45 88 68 78 79c-11 12-49 12-60 0C8 68 8 45 20 35Z" transform="translate(-6 -7)" fill="#000" filter="url(#blur2)"/></mask><mask id="rim" maskUnits="userSpaceOnUse" x="0" y="0" width="96" height="96"><rect width="96" height="96" fill="#fff"/><path d="M20 35 22 13q2-5 6 0l12 12q8-2 16 0l12-12q4-5 6 0l2 22C88 45 88 68 78 79c-11 12-49 12-60 0C8 68 8 45 20 35Z" transform="translate(2.4 2.8)" fill="#000" filter="url(#blur05)"/></mask><mask id="kick" maskUnits="userSpaceOnUse" x="0" y="0" width="96" height="96"><rect width="96" height="96" fill="#fff"/><path d="M20 35 22 13q2-5 6 0l12 12q8-2 16 0l12-12q4-5 6 0l2 22C88 45 88 68 78 79c-11 12-49 12-60 0C8 68 8 45 20 35Z" transform="translate(-2.2 -2.6)" fill="#000" filter="url(#blur05)"/></mask><radialGradient id="cream" cx=".42" cy=".3" r=".8"><stop offset="0" stop-color="#FFFBEA"/><stop offset=".7" stop-color="#F6E7BC"/><stop offset="1" stop-color="#D9C189"/></radialGradient></defs><style>.blink{transform-box:fill-box;transform-origin:50% 55%;animation:blink 4.6s -1.2s infinite}@keyframes blink{0%,91%,100%{transform:scaleY(1)}94%{transform:scaleY(.08)}97%{transform:scaleY(1)}}@media(prefers-reduced-motion:reduce){.blink{animation:none}}</style><path d="M22 22 26 8q2-3 5 0l7 10M74 22 70 8q-2-3-5 0l-7 10" fill="#2EAF7C" stroke="#0E6A4C" stroke-width="1.6" stroke-linejoin="round"/><ellipse cx="48" cy="58" rx="24" ry="18" fill="#F6E7BC" opacity=".95"/><ellipse cx="44" cy="50" rx="10" ry="4" fill="#fff" opacity=".5"/><path d="m28 48 11 2m18 0 11-2" stroke="#2C4235" stroke-width="3.1" stroke-linecap="round"/><path d="M36 60q12 5 24 0" stroke="#2C4235" stroke-width="2.6" stroke-linecap="round"/><path d="m35 60 3 6 3-5m14 0 3 5 3-6" fill="#FFF" stroke="#2C4235" stroke-width="1.3" stroke-linejoin="round"/><ellipse cx="25" cy="58" rx="5.5" ry="3" fill="#F29C93" opacity=".55" filter="url(#blur1)"/><ellipse cx="71" cy="58" rx="5.5" ry="3" fill="#F29C93" opacity=".55" filter="url(#blur1)"/></svg>