<svg xmlns="http://www.w3.org/2000/svg" viewBox="0 0 96 96" fill="none"><title>파랑 꼬부기 뿌요</title><defs><filter id="blur1" x="-30%" y="-30%" width="160%" height="160%"><feGaussianBlur stdDeviation="1.1"/></filter><filter id="blur2" x="-30%" y="-30%" width="160%" height="160%"><feGaussianBlur stdDeviation="2.4"/></filter><filter id="blur3" x="-40%" y="-40%" width="180%" height="180%"><feGaussianBlur stdDeviation="3.4"/></filter><radialGradient id="body" cx="0.38" cy="0.3" r=".82" fx="0.32" fy="0.21999999999999997"><stop offset="0" stop-color="#D4F6FF"/><stop offset=".45" stop-color="#55C2F5"/><stop offset=".86" stop-color="#2380D4"/><stop offset="1" stop-color="#0E3F7C"/></radialGradient><radialGradient id="ao" cx=".44" cy=".4" r=".68"><stop offset=".62" stop-color="#0E3F7C" stop-opacity="0"/><stop offset="1" stop-color="#0E3F7C" stop-opacity=".55"/></radialGradient><linearGradient id="spec" x1="0" y1="0" x2="0" y2="1"><stop offset="0" stop-color="#fff" stop-opacity=".95"/><stop offset="1" stop-color="#fff" stop-opacity=".05"/></linearGradient><radialGradient id="shadow" cx=".5" cy=".5" r=".5"><stop offset="0" stop-color="#0E3F7C" stop-opacity=".5"/><stop offset="1" stop-color="#0E3F7C" stop-opacity="0"/></radialGradient><clipPath id="clip"><path d="M17 42C17 25 31 15 48 15s31 10 31 27c0 12-8 18-13 23 7 5 8 13 3 17-8 5-36 5-43 0-5-4-4-12 3-17-5-5-12-11-12-23Z"/></clipPath><radialGradient id="sclera" cx=".42" cy=".32" r=".75"><stop offset="0" stop-color="#fff"/><stop offset="1" stop-color="#dfe4f0"/></radialGradient><radialGradient id="sq-iris" cx=".45" cy=".35" r=".7"><stop offset="0" stop-color="#B35C88"/><stop offset="1" stop-color="#4A1834"/></radialGradient><radialGradient id="shell" cx=".4" cy=".3" r=".85"><stop offset="0" stop-color="#E7AE74"/><stop offset=".6" stop-color="#B9773F"/><stop offset="1" stop-color="#7A4620"/></radialGradient><radialGradient id="belly" cx=".45" cy=".25" r=".85"><stop offset="0" stop-color="#FFF7D6"/><stop offset=".7" stop-color="#F3CF8A"/><stop offset="1" stop-color="#D5A55E"/></radialGradient><radialGradient id="tail" cx=".35" cy=".3" r=".8"><stop offset="0" stop-color="#B7EEFF"/><stop offset="1" stop-color="#2D8FD8"/></radialGradient></defs><ellipse cx="48" cy="87" rx="31" ry="5.5" fill="url(#shadow)"/><ellipse cx="48" cy="86.5" rx="19" ry="2.6" fill="#0E3F7C" opacity=".32" filter="url(#blur1)"/><path d="M70 78c18 2 23-11 15-17-6-4-12 2-8 6q3 3 6 0" stroke="#0E3F7C" stroke-opacity=".55" stroke-width="7" stroke-linecap="round"/><path d="M70 78c18 2 23-11 15-17-6-4-12 2-8 6q3 3 6 0" stroke="url(#tail)" stroke-width="4.6" stroke-linecap="round"/><path d="M20 50C6 54 8 76 23 80l49-1C86 70 84 52 72 49Z" fill="url(#shell)"/><path d="M20 50C6 54 8 76 23 80l49-1C86 70 84 52 72 49Z" stroke="#5C3214" stroke-width="1.6" stroke-opacity=".6"/><path d="M19 55C8 63 14 77 24 78m49-23c10 8 6 20-3 23" stroke="#FFE8BC" stroke-width="3" stroke-linecap="round" opacity=".9"/><path d="M17 42C17 25 31 15 48 15s31 10 31 27c0 12-8 18-13 23 7 5 8 13 3 17-8 5-36 5-43 0-5-4-4-12 3-17-5-5-12-11-12-23Z" fill="url(#body)"/><path d="M17 42C17 25 31 15 48 15s31 10 31 27c0 12-8 18-13 23 7 5 8 13 3 17-8 5-36 5-43 0-5-4-4-12 3-17-5-5-12-11-12-23Z" fill="url(#ao)"/><g clip-path="url(#clip)"><ellipse cx="50" cy="92" rx="34" ry="12" fill="#9BE7FF" opacity=".75" filter="url(#blur3)"/><path d="M33 63q15 7 30 0l2 16q-17 9-34 0Z" fill="#0E3F7C" opacity=".3" transform="translate(0 -1.5)" filter="url(#blur1)"/><path d="M33 63q15 7 30 0l2 16q-17 9-34 0Z" fill="url(#belly)"/><path d="M33 73h30M48 68v10m0 0-9 6m9-6 9 6" stroke="#C3965A" stroke-width="1.6"/></g><path d="M17 42C17 25 31 15 48 15s31 10 31 27c0 12-8 18-13 23 7 5 8 13 3 17-8 5-36 5-43 0-5-4-4-12 3-17-5-5-12-11-12-23Z" stroke="#0E3F7C" stroke-width="1.8" stroke-linejoin="round" opacity=".55"/><path d="m26 66-8 6m52-6 7 6" stroke="#174F94" stroke-width="2.6" stroke-linecap="round"/><g clip-path="url(#clip)"><ellipse cx="31" cy="26" rx="12" ry="7.5" transform="rotate(-18 31 26)" fill="url(#spec)" opacity=".82" filter="url(#blur2)"/></g><ellipse cx="28" cy="24.5" rx="4.6" ry="2.5" transform="rotate(-18 28 24.5)" fill="#fff" opacity=".92"/><circle cx="37" cy="22" r="1.3" fill="#fff" opacity=".85"/><ellipse cx="32" cy="41.8" rx="7.2" ry="10.2" fill="#000" opacity=".16" filter="url(#blur1)"/><ellipse cx="32" cy="41" rx="6" ry="9" fill="url(#sclera)"/><ellipse cx="32.6" cy="42" rx="4.08" ry="7.2" fill="url(#sq-iris)"/><ellipse cx="30.92" cy="37.76" rx="1.92" ry="1.98" fill="#fff"/><circle cx="33.92" cy="44.42" r="0.8400000000000001" fill="#fff" opacity=".8"/><ellipse cx="64" cy="41.8" rx="7.2" ry="10.2" fill="#000" opacity=".16" filter="url(#blur1)"/><ellipse cx="64" cy="41" rx="6" ry="9" fill="url(#sclera)"/><ellipse cx="64.6" cy="42" rx="4.08" ry="7.2" fill="url(#sq-iris)"/><ellipse cx="62.92" cy="37.76" rx="1.92" ry="1.98" fill="#fff"/><circle cx="65.92" cy="44.42" r="0.8400000000000001" fill="#fff" opacity=".8"/><path d="M35 55q13 11 26-1" fill="#B9566F" stroke="#0E3F7C" stroke-width="2" stroke-linecap="round"/><path d="M42 61q6-4 12-1" stroke="#FFB3BF" stroke-width="2.4" stroke-linecap="round"/><ellipse cx="24" cy="52" rx="4.8" ry="2.4" fill="#FFC2D0" opacity=".55" filter="url(#blur1)"/><ellipse cx="72" cy="52" rx="4.8" ry="2.4" fill="#FFC2D0" opacity=".55" filter="url(#blur1)"/></svg>