<svg xmlns="http://www.w3.org/2000/svg" width="20" height="20" viewBox="0 0 20 20" fill="none">
  <path d="M 3.85 15.1 C 4.7 14.45 5.65 13.938 6.7 13.563 C 7.75 13.188 8.85 13 10 13 C 11.15 13 12.25 13.188 13.3 13.563 C 14.35 13.938 15.3 14.45 16.15 15.1 C 16.733 14.417 17.188 13.642 17.513 12.775 C 17.838 11.908 18 10.983 18 10 C 18 7.783 17.221 5.896 15.663 4.338 C 14.104 2.779 12.217 2 10 2 C 7.783 2 5.896 2.779 4.338 4.338 C 2.779 5.896 2 7.783 2 10 C 2 10.983 2.162 11.908 2.487 12.775 C 2.813 13.642 3.267 14.417 3.85 15.1 Z M 10 11 C 9.017 11 8.188 10.663 7.513 9.988 C 6.838 9.313 6.5 8.483 6.5 7.5 C 6.5 6.517 6.838 5.688 7.513 5.013 C 8.188 4.338 9.017 4 10 4 C 10.983 4 11.813 4.338 12.488 5.013 C 13.163 5.688 13.5 6.517 13.5 7.5 C 13.5 8.483 13.163 9.313 12.488 9.988 C 11.813 10.663 10.983 11 10 11 Z M 10 20 C 8.617 20 7.317 19.737 6.1 19.212 C 4.883 18.688 3.825 17.975 2.925 17.075 C 2.025 16.175 1.313 15.117 0.788 13.9 C 0.262 12.683 0 11.383 0 10 C 0 8.617 0.262 7.317 0.788 6.1 C 1.313 4.883 2.025 3.825 2.925 2.925 C 3.825 2.025 4.883 1.313 6.1 0.788 C 7.317 0.262 8.617 0 10 0 C 11.383 0 12.683 0.262 13.9 0.788 C 15.117 1.313 16.175 2.025 17.075 2.925 C 17.975 3.825 18.688 4.883 19.212 6.1 C 19.737 7.317 20 8.617 20 10 C 20 11.383 19.737 12.683 19.212 13.9 C 18.688 15.117 17.975 16.175 17.075 17.075 C 16.175 17.975 15.117 18.688 13.9 19.212 C 12.683 19.737 11.383 20 10 20 Z" fill="currentColor" fill-rule="nonzero"></path>
</svg>