<svg xmlns="http://www.w3.org/2000/svg" width="20" height="18.350" viewBox="0 0 20 18.350" fill="none">
  <path d="M 10 18.35 L 8.55 17.05 C 6.867 15.533 5.475 14.225 4.375 13.125 C 3.275 12.025 2.4 11.042 1.75 10.175 C 1.1 9.292 0.642 8.483 0.375 7.75 C 0.125 7.017 0 6.267 0 5.5 C 0 3.933 0.525 2.625 1.575 1.575 C 2.625 0.525 3.933 0 5.5 0 C 6.367 0 7.192 0.183 7.975 0.55 C 8.758 0.917 9.433 1.433 10 2.1 C 10.567 1.433 11.242 0.917 12.025 0.55 C 12.808 0.183 13.633 0 14.5 0 C 16.067 0 17.375 0.525 18.425 1.575 C 19.475 2.625 20 3.933 20 5.5 C 20 6.267 19.867 7.017 19.6 7.75 C 19.35 8.483 18.9 9.292 18.25 10.175 C 17.6 11.042 16.725 12.025 15.625 13.125 C 14.525 14.225 13.133 15.533 11.45 17.05 L 10 18.35 Z M 10 15.65 C 11.6 14.217 12.917 12.992 13.95 11.975 C 14.983 10.942 15.8 10.05 16.4 9.3 C 17 8.533 17.417 7.858 17.65 7.275 C 17.883 6.675 18 6.083 18 5.5 C 18 4.5 17.667 3.667 17 3 C 16.333 2.333 15.5 2 14.5 2 C 13.717 2 12.992 2.225 12.325 2.675 C 11.658 3.108 11.2 3.667 10.95 4.35 L 9.05 4.35 C 8.8 3.667 8.342 3.108 7.675 2.675 C 7.008 2.225 6.283 2 5.5 2 C 4.5 2 3.667 2.333 3 3 C 2.333 3.667 2 4.5 2 5.5 C 2 6.083 2.117 6.675 2.35 7.275 C 2.583 7.858 3 8.533 3.6 9.3 C 4.2 10.05 5.017 10.942 6.05 11.975 C 7.083 12.992 8.4 14.217 10 15.65 Z" fill="currentColor" fill-rule="nonzero"></path>
</svg>