<svg xmlns="http://www.w3.org/2000/svg" width="18" height="18" viewBox="0 0 18 18" fill="none">
  <path d="M 2 18 C 1.45 18 0.975 17.808 0.575 17.425 C 0.192 17.025 0 16.55 0 16 L 0 2 C 0 1.45 0.192 0.983 0.575 0.6 C 0.975 0.2 1.45 0 2 0 L 16 0 C 16.55 0 17.017 0.2 17.4 0.6 C 17.8 0.983 18 1.45 18 2 L 18 16 C 18 16.55 17.8 17.025 17.4 17.425 C 17.017 17.808 16.55 18 16 18 L 2 18 Z M 2 16 L 16 16 L 16 13 L 13 13 C 12.5 13.633 11.9 14.125 11.2 14.475 C 10.517 14.825 9.783 15 9 15 C 8.217 15 7.475 14.825 6.775 14.475 C 6.092 14.125 5.5 13.633 5 13 L 2 13 L 2 16 Z M 9 13 C 9.633 13 10.208 12.817 10.725 12.45 C 11.242 12.083 11.6 11.6 11.8 11 L 16 11 L 16 2 L 2 2 L 2 11 L 6.2 11 C 6.4 11.6 6.758 12.083 7.275 12.45 C 7.792 12.817 8.367 13 9 13 Z M 2 16 L 5 16 C 5.5 16 6.092 16 6.775 16 C 7.475 16 8.217 16 9 16 C 9.783 16 10.517 16 11.2 16 C 11.9 16 12.5 16 13 16 L 16 16 L 2 16 Z" fill="currentColor" fill-rule="nonzero"></path>
</svg>