<svg xmlns="http://www.w3.org/2000/svg" width="16" height="20" viewBox="0 0 16 20" fill="none">
  <path d="M 0 17 L 0 15 L 2 15 L 2 8 C 2 6.617 2.417 5.392 3.25 4.325 C 4.083 3.242 5.167 2.533 6.5 2.2 L 6.5 1.5 C 6.5 1.083 6.642 0.733 6.925 0.45 C 7.225 0.15 7.583 0 8 0 C 8.417 0 8.767 0.15 9.05 0.45 C 9.35 0.733 9.5 1.083 9.5 1.5 L 9.5 2.2 C 10.833 2.533 11.917 3.242 12.75 4.325 C 13.583 5.392 14 6.617 14 8 L 14 15 L 16 15 L 16 17 L 0 17 Z M 8 20 C 7.45 20 6.975 19.808 6.575 19.425 C 6.192 19.025 6 18.55 6 18 L 10 18 C 10 18.55 9.8 19.025 9.4 19.425 C 9.017 19.808 8.55 20 8 20 Z M 4 15 L 12 15 L 12 8 C 12 6.9 11.608 5.958 10.825 5.175 C 10.042 4.392 9.1 4 8 4 C 6.9 4 5.958 4.392 5.175 5.175 C 4.392 5.958 4 6.9 4 8 L 4 15 Z" fill="currentColor" fill-rule="nonzero"></path>
</svg>