<svg xmlns="http://www.w3.org/2000/svg" width="16" height="16" viewBox="0 0 16 16" fill="none">
  <path d="M 8 8 C 6.9 8 5.958 7.608 5.175 6.825 C 4.392 6.042 4 5.1 4 4 C 4 2.9 4.392 1.958 5.175 1.175 C 5.958 0.392 6.9 0 8 0 C 9.1 0 10.042 0.392 10.825 1.175 C 11.608 1.958 12 2.9 12 4 C 12 5.1 11.608 6.042 10.825 6.825 C 10.042 7.608 9.1 8 8 8 Z M 0 16 L 0 13.2 C 0 12.633 0.146 12.113 0.438 11.637 C 0.729 11.162 1.117 10.8 1.6 10.55 C 2.633 10.033 3.683 9.646 4.75 9.387 C 5.817 9.129 6.9 9 8 9 C 9.1 9 10.183 9.129 11.25 9.387 C 12.317 9.646 13.367 10.033 14.4 10.55 C 14.883 10.8 15.271 11.162 15.563 11.637 C 15.854 12.113 16 12.633 16 13.2 L 16 16 L 0 16 Z M 2 14 L 14 14 L 14 13.2 C 14 13.017 13.954 12.85 13.863 12.7 C 13.771 12.55 13.65 12.433 13.5 12.35 C 12.6 11.9 11.692 11.563 10.775 11.338 C 9.858 11.113 8.933 11 8 11 C 7.067 11 6.142 11.113 5.225 11.338 C 4.308 11.563 3.4 11.9 2.5 12.35 C 2.35 12.433 2.229 12.55 2.138 12.7 C 2.046 12.85 2 13.017 2 13.2 L 2 14 Z M 8 6 C 8.55 6 9.021 5.804 9.413 5.412 C 9.804 5.021 10 4.55 10 4 C 10 3.45 9.804 2.979 9.413 2.588 C 9.021 2.196 8.55 2 8 2 C 7.45 2 6.979 2.196 6.588 2.588 C 6.196 2.979 6 3.45 6 4 C 6 4.55 6.196 5.021 6.588 5.412 C 6.979 5.804 7.45 6 8 6 Z" fill="currentColor" fill-rule="nonzero"></path>
</svg>